HIERARCHY
ROOT Hips
{
	OFFSET 0.000000 0.000000 0.000000
	CHANNELS 6 Xposition Yposition Zposition Zrotation Yrotation Xrotation 
	JOINT LHipJoint
	{
		OFFSET 0.000000 0.000000 0.000000
		CHANNELS 3 Zrotation Yrotation Xrotation
		JOINT LeftUpLeg
		{
			OFFSET 1.363060 -1.794630 0.839290
			CHANNELS 3 Zrotation Yrotation Xrotation
			JOINT LeftLeg
			{
				OFFSET 2.448110 -6.726130 0.000000
				CHANNELS 3 Zrotation Yrotation Xrotation
				JOINT LeftFoot
				{
					OFFSET 2.562200 -7.039590 0.000000
					CHANNELS 3 Zrotation Yrotation Xrotation
					JOINT LeftToeBase
					{
						OFFSET 0.157640 -0.433110 2.322550
						CHANNELS 3 Zrotation Yrotation Xrotation
						End Site
						{
							OFFSET 0.000000 0.000000 0.000000
						}
					}
				}
			}
		}
	}
	JOINT RHipJoint
	{
		OFFSET 0.000000 0.000000 0.000000
		CHANNELS 3 Zrotation Yrotation Xrotation
		JOINT RightUpLeg
		{
			OFFSET -1.305520 -1.794630 0.839290
			CHANNELS 3 Zrotation Yrotation Xrotation
			JOINT RightLeg
			{
				OFFSET -2.542530 -6.985550 0.000000
				CHANNELS 3 Zrotation Yrotation Xrotation
				JOINT RightFoot
				{
					OFFSET -2.568260 -7.056230 0.000000
					CHANNELS 3 Zrotation Yrotation Xrotation
					JOINT RightToeBase
					{
						OFFSET -0.164730 -0.452590 2.363150
						CHANNELS 3 Zrotation Yrotation Xrotation
						End Site
						{
							OFFSET 0.000000 0.000000 0.000000
						}
					}
				}
			}
		}
	}
	JOINT LowerBack
	{
		OFFSET 0.000000 0.000000 0.000000
		CHANNELS 3 Zrotation Yrotation Xrotation
		JOINT Spine
		{
			OFFSET 0.028270 2.035590 -0.193380
			CHANNELS 3 Zrotation Yrotation Xrotation
			JOINT Spine1
			{
				OFFSET 0.056720 2.048850 -0.042750
				CHANNELS 3 Zrotation Yrotation Xrotation
				JOINT Neck
				{
					OFFSET 0.000000 0.000000 0.000000
					CHANNELS 3 Zrotation Yrotation Xrotation
					JOINT Neck1
					{
						OFFSET -0.054170 1.746240 0.172020
						CHANNELS 3 Zrotation Yrotation Xrotation
						JOINT Head
						{
							OFFSET 0.104070 1.761360 -0.123970
							CHANNELS 3 Zrotation Yrotation Xrotation
							End Site
							{
								OFFSET 0.000000 0.000000 0.000000
							}
						}
					}
				}
				JOINT LeftShoulder
				{
					OFFSET 0.000000 0.000000 0.000000
					CHANNELS 3 Zrotation Yrotation Xrotation
					JOINT LeftArm
					{
						OFFSET 3.362410 1.200890 -0.311210
						CHANNELS 3 Zrotation Yrotation Xrotation
						JOINT LeftForeArm
						{
							OFFSET 4.983000 -0.000000 -0.000000
							CHANNELS 3 Zrotation Yrotation Xrotation
							JOINT LeftHand
							{
								OFFSET 3.483560 -0.000000 -0.000000
								CHANNELS 3 Zrotation Yrotation Xrotation
								JOINT LeftFingerBase
								{
									OFFSET 0.000000 0.000000 0.000000
									CHANNELS 3 Zrotation Yrotation Xrotation
									JOINT LeftHandIndex1
									{
										OFFSET 0.715260 -0.000000 -0.000000
										CHANNELS 3 Zrotation Yrotation Xrotation
										End Site
										{
											OFFSET 0.000000 0.000000 0.000000
										}
									}
								}
								JOINT LThumb
								{
									OFFSET 0.000000 0.000000 0.000000
									CHANNELS 3 Zrotation Yrotation Xrotation
									End Site
									{
										OFFSET 0.000000 0.000000 0.000000
									}
								}
							}
						}
					}
				}
				JOINT RightShoulder
				{
					OFFSET 0.000000 0.000000 0.000000
					CHANNELS 3 Zrotation Yrotation Xrotation
					JOINT RightArm
					{
						OFFSET -3.136600 1.374050 -0.404650
						CHANNELS 3 Zrotation Yrotation Xrotation
						JOINT RightForeArm
						{
							OFFSET -5.241900 -0.000000 -0.000000
							CHANNELS 3 Zrotation Yrotation Xrotation
							JOINT RightHand
							{
								OFFSET -3.444170 -0.000000 -0.000000
								CHANNELS 3 Zrotation Yrotation Xrotation
								JOINT RightFingerBase
								{
									OFFSET 0.000000 0.000000 0.000000
									CHANNELS 3 Zrotation Yrotation Xrotation
									JOINT RightHandIndex1
									{
										OFFSET -0.622530 -0.000000 -0.000000
										CHANNELS 3 Zrotation Yrotation Xrotation
										End Site
										{
											OFFSET 0.000000 0.000000 0.000000
										}
									}
								}
								JOINT RThumb
								{
									OFFSET 0.000000 0.000000 0.000000
									CHANNELS 3 Zrotation Yrotation Xrotation
									End Site
									{
										OFFSET 0.000000 0.000000 0.000000
									}
								}
							}
						}
					}
				}
			}
		}
	}
}
MOTION
Frames: 4
Frame Time: 0.008333
-7.114210 17.276768 -9.138456 155.396293 58.157821 -178.045266 -8.084790 1.347510 8.126201 -8.234838 -2.822467 0.023052 -1.108774 8.162095 22.912780 1.088406 10.745747 37.585722 5.957900 -14.387400 -44.812500 -4.128982 5.243530 -9.542864 23.512038 -6.880321 -62.668487 -4.223288 -18.668217 45.349801 -0.326429 -2.425329 9.652697 -5.111700 13.508400 -41.302900 -6.626241 -2.245345 26.071601 0.479733 -2.377072 -2.260813 3.442119 -1.284909 -0.108652 -11.810755 -13.404589 -1.588702 6.366318 -20.195461 0.185033 11.254300 -5.185200 -5.212700 -0.917529 -0.583574 2.848434 -61.658735 -3.259649 -10.122965 60.511564 -54.718215 -57.674966 2.576711 2.219781 -70.909335 -19.691003 37.152539 -14.438600 -7.125000 0.000000 0.000000 -62.166500 57.439400 -25.173400 -2.886801 1.838434 1.773607 70.410257 3.310716 14.109778 -27.473925 39.341750 -17.833126 2.860588 -1.761886 -6.560917 -42.683146 26.922994 -25.742900 7.125000 0.000000 0.000000 -8.311800 7.317500 -9.396300 
-6.558255 17.245023 -9.484415 154.016093 57.944635 -179.547688 -7.842003 1.387634 8.010299 -9.108054 -3.529804 1.506646 -0.260474 9.072136 24.938570 -0.639133 14.368647 35.051471 5.703200 -14.134400 -43.778500 -3.828974 5.479037 -9.709231 23.931816 -7.863144 -61.903924 -2.986028 -17.646367 41.918328 -0.806308 -1.807635 12.372322 -4.718300 13.059300 -39.590900 -6.354827 -2.314990 25.870586 0.463619 -2.513677 -2.254337 2.875086 -1.279746 0.013195 -11.664231 -13.636223 -1.435385 6.357382 -20.477917 -0.046339 11.272800 -5.204400 -5.460300 -0.690544 -0.229882 2.868039 -63.846092 0.564817 -14.154322 65.551985 -57.641756 -62.916759 2.164443 3.047780 -73.112648 -21.653436 37.883413 -16.184000 -7.125000 0.000000 0.000000 -64.112600 56.812400 -25.431700 -3.039215 1.671050 1.783363 70.315128 2.294120 13.880734 -28.229045 39.960590 -18.542995 2.920558 -1.631647 -8.225543 -42.499354 27.042204 -25.646700 7.125000 0.000000 0.000000 -8.204600 7.302800 -9.270900 
-5.995113 17.216752 -9.820911 152.298688 57.907741 178.543120 -7.540603 1.308848 7.829432 -10.212909 -3.758246 2.544993 0.613370 10.070671 27.764760 -1.583605 15.875485 33.194848 5.225900 -13.633800 -41.789800 -3.523363 5.812208 -9.843040 23.971518 -8.714686 -60.860814 -2.010746 -16.717590 39.217660 -1.474788 -0.730649 15.180614 -4.281000 12.525300 -37.616400 -6.967012 -2.139752 25.640468 0.501899 -2.222362 -2.221806 3.817590 -1.236241 0.346313 -12.518644 -13.870656 -1.424411 6.360213 -20.993376 -0.067957 11.385800 -5.320500 -5.451800 -0.358522 0.048926 2.949057 -66.935025 3.942735 -18.668525 71.051138 -60.710331 -68.061606 1.932189 3.564898 -74.743998 -22.062261 38.872096 -16.947400 -7.125000 0.000000 0.000000 -65.441600 56.941500 -26.548800 -2.998032 1.335831 1.765709 68.996113 1.191956 13.754815 -28.954483 40.521068 -19.282837 3.021523 -1.468088 -9.426473 -42.712693 27.259980 -25.915200 7.125000 0.000000 0.000000 -8.347700 7.496700 -9.460400 
-5.421668 17.187283 -10.138480 150.598122 57.771625 176.434872 -7.128351 1.126947 7.541540 -11.366280 -3.716666 3.354953 1.581324 11.140033 31.307839 -1.938849 15.863894 31.780277 4.927500 -13.301600 -40.508300 -3.146015 6.067611 -9.789149 23.887002 -9.485739 -59.501677 -1.473799 -16.087814 37.674490 -1.889522 -0.140554 17.504959 -3.260700 11.105500 -32.636700 -7.454955 -1.773681 25.667213 0.478782 -1.831142 -2.191552 4.060333 -1.041225 0.523578 -12.740390 -14.258002 -1.255261 6.417324 -21.741500 -0.046235 11.437800 -5.636400 -5.361700 -0.119850 0.286743 3.043082 -68.995720 6.901990 -23.017636 76.405854 -63.551153 -72.504879 1.807818 3.776945 -76.060692 -21.933552 39.498922 -17.133900 -7.125000 0.000000 0.000000 -66.081300 57.206900 -27.444500 -3.020239 1.111631 1.736945 68.529522 -0.138617 13.200965 -29.691546 41.086634 -20.041374 3.085280 -1.324487 -10.187346 -42.844375 27.218098 -25.929200 7.125000 0.000000 0.000000 -8.502500 7.362700 -9.622200 
